PathFileType	4	(X/Y/Z)	Walk7.trc
DataRate	CameraRate	NumFrames	NumMarkers	Units	OrigDataRate	OrigDataStartFrame	OrigNumFrames
200.000000	200.000000	5	59	mm	200.000000	458	533
Frame#	Times		LBHD		C7		T10		RBack		LPSI		RPSI		RCAR		LElbowM		LLFC		LFHD		LUA1		RElbowM		RUA1		RWRR		CLAV		LCAR		RFA1		LFA1		LWRU		RTH2		RTH3		RTB1		LACR1		RACR1		LWRR		RTB3		RToe		RMT1		RLFC		RTH4		RCAL		RMT5		RTB4		LTB3		RWRU		LTH1		RFHD		RBHD		RTB2		RTH1		LTH4		LTH3		LElbow		STRN		RMMAL		RElbow		LTH2		RASI		LTB2		RLMAL		LASI		LCAL		LMT1		LLMAL		LMT5		LMMAL		LToe		LTB1		LTB4
			X1	Y1	Z1	X2	Y2	Z2	X3	Y3	Z3	X4	Y4	Z4	X5	Y5	Z5	X6	Y6	Z6	X7	Y7	Z7	X8	Y8	Z8	X9	Y9	Z9	X10	Y10	Z10	X11	Y11	Z11	X12	Y12	Z12	X13	Y13	Z13	X14	Y14	Z14	X15	Y15	Z15	X16	Y16	Z16	X17	Y17	Z17	X18	Y18	Z18	X19	Y19	Z19	X20	Y20	Z20	X21	Y21	Z21	X22	Y22	Z22	X23	Y23	Z23	X24	Y24	Z24	X25	Y25	Z25	X26	Y26	Z26	X27	Y27	Z27	X28	Y28	Z28	X29	Y29	Z29	X30	Y30	Z30	X31	Y31	Z31	X32	Y32	Z32	X33	Y33	Z33	X34	Y34	Z34	X35	Y35	Z35	X36	Y36	Z36	X37	Y37	Z37	X38	Y38	Z38	X39	Y39	Z39	X40	Y40	Z40	X41	Y41	Z41	X42	Y42	Z42	X43	Y43	Z43	X44	Y44	Z44	X45	Y45	Z45	X46	Y46	Z46	X47	Y47	Z47	X48	Y48	Z48	X49	Y49	Z49	X50	Y50	Z50	X51	Y51	Z51	X52	Y52	Z52	X53	Y53	Z53	X54	Y54	Z54	X55	Y55	Z55	X56	Y56	Z56	X57	Y57	Z57	X58	Y58	Z58	X59	Y59	Z59

458	2.29	485.33	1469.2	-88.692	476.7	1336.3	-20.4	467.69	1069	-18.833	464.32	1238.6	113.43	455.95	881.92	-59.199	442.48	891.02	40.803	751.48	768.43	259.82	500.8	956.41	-209.15	711.32	452.67	-130.67	656.06	1498.7	-68.844	562.93	1105.5	-266.04	559.43	945.93	179.5	594.52	1136.3	214.16	758.75	812.75	212.12	610.25	1271.3	-16.78	620.1	705.7	-335.04	641.65	871.4	255.16	544.16	867.72	-310.46	569.82	746.65	-331.05	618.87	627.19	161.46	533.05	536.11	166.3	478.43	315.98	72.782	561.12	1277.6	-185.29	559.98	1287.4	132.73	627.71	744.73	-285.53	344.64	189.38	57.289	317.85	28.396	22.573	298.59	67.272	17.578	527.87	436.98	157.95	544.88	629.04	186.54	205.54	185.19	56.965	272.84	64.963	71.917	407.43	257.58	66.897	768.63	164.41	-34.342	696.4	777.1	232.64	652.78	740.03	-189.26	659.96	1508.3	8.1394	484.18	1476.5	34.554	381.45	276.93	130.93	558.03	714.92	208.88	683.35	655.01	-163.05	708.78	567.86	-140.66	524.26	987.92	-278.56	681.49	1171.4	-20.369	273.01	159.09	13.562	600.4	992.75	253.44	735.97	686.88	-122.63	664.14	865.06	132.59	734.48	248.95	-110.53	255.29	154.09	90.966	664.93	856.74	-159.75	690.19	29.096	-36.89	844.69	47.751	-26.435	732.19	61.537	-77.991	822.41	29.61	-80.627	750.73	68.174	0.097371	900.12	24.585	-34.938	755.72	346.42	-47.361	753.92	254.52	-42.854
459	2.295	491.39	1470.5	-89.569	482.56	1337.6	-21.328	473.61	1070.3	-19.419	470.09	1240.1	112.67	461.94	883.19	-59.399	448.58	891.65	40.681	755.45	769.22	259.54	507.21	957.91	-209.39	713.81	452.89	-131.33	662.1	1499.9	-69.573	569.24	1106.8	-266.57	564.44	947.72	178.69	599.93	1137.9	213.44	762.92	813.5	211.8	616.11	1272.6	-17.446	626.46	706.83	-335.06	646.01	872.72	254.7	550.52	868.99	-310.73	576.22	747.88	-331.18	627.33	628.51	161.88	542.52	536.49	167.27	488.96	316.21	75.054	567.18	1278.9	-185.95	565.76	1288.9	131.89	633.88	745.93	-285.52	353.22	191.74	58.706	321.39	29.482	24.297	304.25	69.532	18.67	538.17	437.36	159.24	553.25	629.71	186.83	214.09	190.38	56.476	277.61	67.917	72.527	417.02	258.91	68.651	769.33	164.27	-34.776	700.38	778.18	232.34	657.73	740.81	-189.83	665.94	1509.5	7.4257	490.13	1477.8	33.668	390.08	279.63	131.79	565.39	715.86	208.58	687.62	655.5	-163.76	712.24	568.08	-141.32	530.57	989.24	-278.96	687.43	1172.8	-21.034	281.49	162.48	14.016	605.28	994.25	252.76	740.57	686.86	-123.42	676.45	864.9	132.22	735.71	248.94	-111.07	262.55	158.29	91.275	670.84	858.28	-160.28	690.16	29.149	-37.029	844.7	47.69	-26.605	732.33	61.507	-78.221	822.38	29.495	-80.834	750.8	68.266	-0.18539	900.2	24.277	-34.868	757.68	346.36	-48.007	755.22	254.46	-43.37
460	2.3	497.44	1471.7	-90.422	488.4	1338.8	-22.242	479.52	1071.4	-20.007	475.81	1241.6	111.91	467.87	884.43	-59.628	454.64	892.28	40.497	759.39	770.01	259.29	513.58	959.37	-209.66	716.13	453.06	-131.96	668.14	1501	-70.279	575.54	1108.1	-267.09	569.36	949.46	177.97	605.26	1139.4	212.77	767.05	814.26	211.53	621.96	1273.9	-18.081	632.89	707.96	-335.07	650.33	874.02	254.3	556.89	870.22	-311	582.68	749.09	-331.32	635.79	629.88	162.31	552	536.93	168.21	499.62	316.52	77.267	573.24	1280.2	-186.57	571.48	1290.4	131.07	640.12	747.14	-285.5	362.06	194.07	60.061	325.6	30.67	26.187	310.46	71.807	19.842	548.5	437.79	160.46	561.62	630.41	187.11	222.9	195.28	56.033	282.96	70.937	73.241	426.81	260.26	70.361	769.98	164.13	-35.18	704.34	779.26	232.08	662.56	741.49	-190.41	671.92	1510.6	6.7322	496.06	1479	32.805	398.97	282.29	132.59	572.74	716.82	208.28	691.74	655.9	-164.45	715.53	568.22	-141.97	536.84	990.53	-279.37	693.33	1174.2	-21.656	290.26	165.75	14.453	610.1	995.72	252.14	745.07	686.74	-124.27	688.62	864.77	131.86	736.85	248.93	-111.56	270.18	162.35	91.563	676.62	859.75	-160.82	690.12	29.186	-37.144	844.7	47.652	-26.752	732.43	61.482	-78.422	822.35	29.408	-81.016	750.86	68.353	-0.43846	900.25	24.034	-34.787	759.51	346.29	-48.599	756.43	254.39	-43.842
461	2.305	503.49	1472.9	-91.25	494.22	1340	-23.137	485.41	1072.6	-20.598	481.49	1243	111.15	473.75	885.65	-59.886	460.66	892.92	40.254	763.31	770.8	259.08	519.91	960.77	-209.98	718.29	453.17	-132.53	674.18	1502.1	-70.959	581.81	1109.3	-267.61	574.18	951.15	177.34	610.52	1140.9	212.15	771.15	815.02	211.3	627.78	1275.2	-18.686	639.42	709.07	-335.09	654.62	875.29	253.94	563.27	871.41	-311.29	589.21	750.26	-331.45	644.23	631.3	162.74	561.46	537.42	169.11	510.39	316.93	79.39	579.29	1281.4	-187.17	577.15	1291.9	130.29	646.44	748.35	-285.5	371.18	196.36	61.335	330.54	31.941	28.228	317.24	74.061	21.088	558.86	438.26	161.59	569.98	631.14	187.37	231.97	199.84	55.627	288.94	73.975	74.055	436.79	261.64	72.006	770.58	163.99	-35.556	708.28	780.32	231.84	667.28	742.1	-190.99	677.89	1511.7	6.0599	502	1480.2	31.966	408.12	284.89	133.34	580.08	717.81	207.98	695.72	656.24	-165.13	718.66	568.28	-142.61	543.1	991.78	-279.79	699.19	1175.4	-22.234	299.3	168.88	14.867	614.87	997.16	251.59	749.46	686.54	-125.15	700.65	864.66	131.5	737.9	248.91	-112	278.18	166.25	91.827	682.24	861.14	-161.36	690.08	29.212	-37.235	844.68	47.629	-26.879	732.51	61.46	-78.591	822.31	29.341	-81.173	750.9	68.431	-0.66103	900.28	23.84	-34.701	761.22	346.2	-49.141	757.56	254.31	-44.273
462	2.31	509.53	1474.1	-92.052	500.03	1341.2	-24.01	491.3	1073.7	-21.192	487.13	1244.3	110.41	479.57	886.83	-60.172	466.64	893.55	39.953	767.22	771.58	258.9	526.19	962.11	-210.34	720.3	453.24	-133.06	680.21	1503.1	-71.614	588.07	1110.5	-268.13	578.92	952.76	176.8	615.71	1142.3	211.59	775.23	815.78	211.1	633.58	1276.4	-19.26	646.03	710.17	-335.11	658.86	876.51	253.63	569.67	872.54	-311.6	595.79	751.39	-331.59	652.65	632.76	163.18	570.9	537.97	169.96	521.27	317.43	81.396	585.33	1282.6	-187.75	582.75	1293.2	129.54	652.84	749.54	-285.51	380.55	198.59	62.516	336.26	33.268	30.396	324.64	76.262	22.403	569.23	438.79	162.63	578.32	631.92	187.62	241.28	204.03	55.249	295.59	76.984	74.964	446.95	263.03	73.565	771.15	163.85	-35.908	712.2	781.36	231.63	671.89	742.64	-191.57	683.87	1512.7	5.4094	507.92	1481.4	31.154	417.52	287.42	134.05	587.41	718.82	207.68	699.56	656.5	-165.78	721.66	568.29	-143.22	549.33	992.98	-280.24	705.02	1176.7	-22.766	308.62	171.82	15.259	619.59	998.54	251.11	753.76	686.25	-126.06	712.51	864.57	131.16	738.85	248.88	-112.41	286.56	169.93	92.064	687.65	862.44	-161.89	690.03	29.227	-37.303	844.65	47.616	-26.985	732.56	61.44	-78.73	822.26	29.29	-81.308	750.94	68.497	-0.8536	900.3	23.683	-34.613	762.83	346.1	-49.639	758.63	254.23	-44.668
